HIERARCHY
ROOT Hips
{
	OFFSET 0.000000 0.000000 0.000000
	CHANNELS 6 Xposition Yposition Zposition Zrotation Yrotation Xrotation 
	JOINT LHipJoint
	{
		OFFSET 0.000000 0.000000 0.000000
		CHANNELS 3 Zrotation Yrotation Xrotation
		JOINT LeftUpLeg
		{
			OFFSET 1.363060 -1.794630 0.839290
			CHANNELS 3 Zrotation Yrotation Xrotation
			JOINT LeftLeg
			{
				OFFSET 2.448110 -6.726130 0.000000
				CHANNELS 3 Zrotation Yrotation Xrotation
				JOINT LeftFoot
				{
					OFFSET 2.562200 -7.039590 0.000000
					CHANNELS 3 Zrotation Yrotation Xrotation
					JOINT LeftToeBase
					{
						OFFSET 0.157640 -0.433110 2.322550
						CHANNELS 3 Zrotation Yrotation Xrotation
						End Site
						{
							OFFSET 0.000000 0.000000 0.000000
						}
					}
				}
			}
		}
	}
	JOINT RHipJoint
	{
		OFFSET 0.000000 0.000000 0.000000
		CHANNELS 3 Zrotation Yrotation Xrotation
		JOINT RightUpLeg
		{
			OFFSET -1.305520 -1.794630 0.839290
			CHANNELS 3 Zrotation Yrotation Xrotation
			JOINT RightLeg
			{
				OFFSET -2.542530 -6.985550 0.000000
				CHANNELS 3 Zrotation Yrotation Xrotation
				JOINT RightFoot
				{
					OFFSET -2.568260 -7.056230 0.000000
					CHANNELS 3 Zrotation Yrotation Xrotation
					JOINT RightToeBase
					{
						OFFSET -0.164730 -0.452590 2.363150
						CHANNELS 3 Zrotation Yrotation Xrotation
						End Site
						{
							OFFSET 0.000000 0.000000 0.000000
						}
					}
				}
			}
		}
	}
	JOINT LowerBack
	{
		OFFSET 0.000000 0.000000 0.000000
		CHANNELS 3 Zrotation Yrotation Xrotation
		JOINT Spine
		{
			OFFSET 0.028270 2.035590 -0.193380
			CHANNELS 3 Zrotation Yrotation Xrotation
			JOINT Spine1
			{
				OFFSET 0.056720 2.048850 -0.042750
				CHANNELS 3 Zrotation Yrotation Xrotation
				JOINT Neck
				{
					OFFSET 0.000000 0.000000 0.000000
					CHANNELS 3 Zrotation Yrotation Xrotation
					JOINT Neck1
					{
						OFFSET -0.054170 1.746240 0.172020
						CHANNELS 3 Zrotation Yrotation Xrotation
						JOINT Head
						{
							OFFSET 0.104070 1.761360 -0.123970
							CHANNELS 3 Zrotation Yrotation Xrotation
							End Site
							{
								OFFSET 0.000000 0.000000 0.000000
							}
						}
					}
				}
				JOINT LeftShoulder
				{
					OFFSET 0.000000 0.000000 0.000000
					CHANNELS 3 Zrotation Yrotation Xrotation
					JOINT LeftArm
					{
						OFFSET 3.362410 1.200890 -0.311210
						CHANNELS 3 Zrotation Yrotation Xrotation
						JOINT LeftForeArm
						{
							OFFSET 4.983000 -0.000000 -0.000000
							CHANNELS 3 Zrotation Yrotation Xrotation
							JOINT LeftHand
							{
								OFFSET 3.483560 -0.000000 -0.000000
								CHANNELS 3 Zrotation Yrotation Xrotation
								JOINT LeftFingerBase
								{
									OFFSET 0.000000 0.000000 0.000000
									CHANNELS 3 Zrotation Yrotation Xrotation
									JOINT LeftHandIndex1
									{
										OFFSET 0.715260 -0.000000 -0.000000
										CHANNELS 3 Zrotation Yrotation Xrotation
										End Site
										{
											OFFSET 0.000000 0.000000 0.000000
										}
									}
								}
								JOINT LThumb
								{
									OFFSET 0.000000 0.000000 0.000000
									CHANNELS 3 Zrotation Yrotation Xrotation
									End Site
									{
										OFFSET 0.000000 0.000000 0.000000
									}
								}
							}
						}
					}
				}
				JOINT RightShoulder
				{
					OFFSET 0.000000 0.000000 0.000000
					CHANNELS 3 Zrotation Yrotation Xrotation
					JOINT RightArm
					{
						OFFSET -3.136600 1.374050 -0.404650
						CHANNELS 3 Zrotation Yrotation Xrotation
						JOINT RightForeArm
						{
							OFFSET -5.241900 -0.000000 -0.000000
							CHANNELS 3 Zrotation Yrotation Xrotation
							JOINT RightHand
							{
								OFFSET -3.444170 -0.000000 -0.000000
								CHANNELS 3 Zrotation Yrotation Xrotation
								JOINT RightFingerBase
								{
									OFFSET 0.000000 0.000000 0.000000
									CHANNELS 3 Zrotation Yrotation Xrotation
									JOINT RightHandIndex1
									{
										OFFSET -0.622530 -0.000000 -0.000000
										CHANNELS 3 Zrotation Yrotation Xrotation
										End Site
										{
											OFFSET 0.000000 0.000000 0.000000
										}
									}
								}
								JOINT RThumb
								{
									OFFSET 0.000000 0.000000 0.000000
									CHANNELS 3 Zrotation Yrotation Xrotation
									End Site
									{
										OFFSET 0.000000 0.000000 0.000000
									}
								}
							}
						}
					}
				}
			}
		}
	}
}
MOTION
Frames: 8
Frame Time: 0.008333
-15.795772 17.259829 -11.119809 -37.846090 47.502665 11.600044 4.488737 -2.103604 -6.262621 3.346502 5.754524 -60.481003 14.270389 20.600820 70.644009 0.072674 -1.808912 16.433152 3.159200 10.948400 32.106100 1.416084 0.959387 0.489165 19.163954 8.555186 -20.126635 1.594806 -5.530001 17.191396 -2.238566 17.681961 5.472816 -0.195500 -2.847400 7.854100 -17.430696 2.488544 25.834274 -1.164331 -0.741299 -3.014574 4.761749 -0.628733 1.539405 -5.907309 2.200377 -24.914381 5.431463 4.442872 8.923574 5.748800 2.022100 9.534000 0.392577 -10.641767 3.815994 7.611412 -10.485122 -24.190945 11.886349 -18.819984 -5.734530 -3.882818 -6.988598 -68.737578 41.259835 -0.930080 -2.588200 -7.125000 0.000000 0.000000 17.024500 26.454100 -7.993200 -1.061183 9.637335 4.385511 -6.231731 -6.557048 -47.094949 -20.626899 25.656382 -7.735972 2.669878 -0.211808 7.224266 -47.000468 -9.900614 11.089100 7.125000 0.000000 0.000000 -20.840800 -43.555800 -0.778800 
-16.074757 17.141369 -10.928351 -33.748360 47.805381 11.089340 4.147136 -2.073295 -6.147180 1.735096 6.047027 -58.485897 14.697064 20.773497 72.153405 0.078636 -2.729801 16.132278 3.300500 11.166300 32.842900 1.620485 0.523219 0.970569 17.446639 8.711643 -16.094849 1.582403 -4.904299 16.224767 -2.053760 23.420914 9.531806 -0.074500 -1.760600 4.844600 -16.527308 2.752705 26.888596 -1.040201 -0.449119 -2.901312 4.519968 -0.458114 1.231256 -6.700370 2.194528 -24.024644 5.512007 4.660403 9.533067 5.838900 1.995400 9.794000 0.643814 -10.671305 3.399888 6.906167 -11.666022 -21.462799 14.392771 -21.981441 -7.431529 -3.900002 -7.876315 -81.049048 53.161502 -9.099949 -20.194900 -7.125000 0.000000 0.000000 22.040800 8.128600 -20.310100 -1.169671 9.743661 4.459914 -6.362698 -7.058106 -45.553403 -21.507375 26.736579 -8.117567 2.559569 -0.271529 7.147164 -47.678675 -8.907586 10.117000 7.125000 0.000000 0.000000 -21.043100 -42.175200 -1.541900 
-16.425568 17.061458 -10.769466 -29.147469 48.337257 13.340811 3.937244 -2.101745 -6.118548 -0.051347 6.015865 -58.980849 15.229565 20.990893 74.061072 0.028250 -3.498552 15.131872 3.295000 11.157900 32.814200 1.811960 0.260686 1.139240 15.092985 9.911046 -14.048005 1.381839 -4.743747 15.639501 -2.676909 28.058971 2.850408 -0.735800 -5.480200 15.283400 -16.581716 2.837395 26.554871 -1.098321 -0.382100 -2.934307 4.943816 -0.434101 1.153704 -6.640469 2.087053 -23.756871 5.406787 4.435936 9.723417 5.914000 1.849800 9.754600 0.504460 -10.834046 3.946999 8.117783 -11.835026 -25.316884 10.772556 -17.574392 -4.796615 -4.858898 -5.020659 -54.831026 36.637137 -1.377302 -2.460200 -7.125000 0.000000 0.000000 12.819400 26.359700 -5.934900 -1.082287 9.686593 4.355702 -6.630047 -7.503797 -44.563468 -21.786571 26.954372 -8.381691 2.614972 -0.283589 7.017642 -48.567494 -7.944411 9.316200 7.125000 0.000000 0.000000 -21.592000 -40.947400 -2.278700 
-16.700101 17.062044 -10.633899 -26.728485 48.965100 14.387292 3.837844 -2.181382 -6.163714 -0.581231 5.837977 -58.730401 15.272205 21.027108 74.329055 0.034890 -3.964753 14.787441 3.149900 10.933900 32.057300 1.602216 0.283020 1.258122 15.078518 8.322507 -14.090436 1.633601 -4.332705 15.261767 -1.421976 28.435873 16.004196 -0.005900 0.494900 -1.359800 -15.436801 2.577639 26.405579 -0.979698 -0.401069 -2.930913 5.121199 -0.457509 1.194050 -6.401733 2.100744 -23.725694 5.292053 4.381193 9.396116 5.793600 1.862200 9.536800 0.685781 -10.781650 4.057765 9.002356 -11.481921 -25.384690 11.180529 -17.878012 -4.783826 -4.863322 -4.458513 -51.516342 34.708959 -2.241588 -2.907700 -7.125000 0.000000 0.000000 10.985800 25.547500 -5.266000 -1.087044 9.645516 4.356221 -6.110738 -7.651665 -44.311813 -22.152557 27.313567 -8.614671 2.572608 -0.325807 6.688609 -48.759933 -7.059439 8.242700 7.125000 0.000000 0.000000 -21.404200 -39.609900 -3.004600 
-16.914877 17.160234 -10.517782 -25.789497 49.558339 15.430737 3.712903 -2.287537 -6.200798 -0.102157 5.078133 -58.438788 14.693699 20.929130 72.674644 0.088893 -4.022095 15.133054 3.050200 10.775800 31.527400 1.564121 0.380227 1.163121 15.104609 7.944690 -14.937014 1.606051 -4.461569 15.486906 -1.599506 27.723779 14.781101 -0.000100 0.076700 -0.210800 -13.807511 2.296706 25.759350 -0.843347 -0.233771 -2.971919 5.257768 -0.385244 1.191745 -5.916818 1.887981 -23.221289 5.365491 3.975270 8.227035 5.677800 1.829700 8.719700 0.896458 -10.639494 4.138817 9.940627 -11.004880 -25.178551 11.839482 -18.495526 -4.925317 -4.935669 -3.864074 -48.628891 33.942126 -4.114631 -4.370800 -7.125000 0.000000 0.000000 9.876300 23.207600 -5.261200 -1.140121 9.645546 4.429139 -4.419142 -8.349288 -43.404711 -22.948557 28.040945 -9.138852 2.595803 -0.142524 5.760796 -49.943056 -9.592829 11.843600 7.125000 0.000000 0.000000 -23.510200 -43.618600 -0.851700 
-17.107858 17.394225 -10.411742 -25.822716 50.662405 16.404032 3.490186 -2.480389 -6.232828 0.986819 3.925208 -57.380210 13.221619 20.532260 68.368180 0.234990 -3.835883 16.288378 3.180100 10.981000 32.215900 1.509184 0.648536 0.933689 16.046944 6.707640 -17.218441 1.500179 -4.877062 16.250002 -1.864113 26.877228 11.622698 -0.013700 -0.755100 2.075100 -12.241487 1.943365 25.420310 -0.627222 -0.226590 -3.076381 5.891441 -0.409233 0.907949 -5.692719 1.364792 -22.637733 6.151916 3.290582 6.971646 6.040500 1.725900 7.900500 1.080697 -10.475589 4.179428 10.729089 -10.222139 -24.888413 12.662569 -19.262896 -5.241131 -5.087541 -3.365257 -46.731885 34.333719 -6.623364 -6.597000 -7.125000 0.000000 0.000000 9.583600 19.813700 -5.849400 -1.278032 9.663111 4.524143 -1.362307 -8.849309 -43.135803 -23.705959 28.654063 -9.656080 2.509617 -0.138531 5.151676 -50.470707 -10.461289 13.005100 7.125000 0.000000 0.000000 -24.287900 -44.856500 -0.091600 
-17.269320 17.691958 -10.291289 -24.462587 51.456114 18.362349 3.060857 -2.717536 -6.237598 0.972839 3.077651 -55.783908 11.420605 19.905734 63.117039 0.328780 -2.442288 17.720120 3.253600 11.094700 32.599900 1.425256 0.903790 0.694785 16.061595 5.312469 -19.376916 1.394561 -5.258707 16.947580 -2.321950 25.297442 8.302769 -0.047800 -1.410900 3.880200 -12.240656 1.872932 25.425478 -0.447050 -0.232648 -3.112819 6.986495 -0.477840 0.851638 -5.262350 0.933335 -22.689440 6.730475 2.647738 6.259985 6.230400 1.583000 7.587600 1.282468 -10.349603 4.210041 11.473817 -9.309280 -24.870790 13.499036 -20.026212 -5.645576 -5.219027 -3.096278 -45.814429 35.089051 -8.731540 -8.597300 -7.125000 0.000000 0.000000 9.684000 16.912400 -6.542800 -1.426266 9.634431 4.576206 1.708985 -9.096453 -42.151000 -23.690523 28.595418 -9.717279 2.454188 -0.121240 4.564112 -50.791795 -12.333158 15.300200 7.125000 0.000000 0.000000 -25.374800 -47.472900 1.650100 
-17.418362 18.032341 -10.164041 -22.467528 52.352048 20.955462 2.533006 -3.034165 -6.203083 0.405118 2.404046 -54.220485 9.422924 19.025263 57.684579 0.661952 -4.084044 17.351719 3.665500 11.701500 34.684100 1.312849 1.174898 0.398276 15.667825 4.119604 -21.626614 1.254807 -5.695527 17.721544 -2.908482 23.584723 4.017197 -0.099000 -2.029300 5.586700 -12.862397 1.974297 25.382039 -0.305451 -0.154119 -3.162416 8.159334 -0.499959 0.675354 -4.382074 0.478632 -22.156333 7.213531 1.849684 5.630441 6.224100 1.347200 7.230200 1.564447 -10.249077 4.244932 12.363928 -8.742242 -24.304967 14.300895 -20.806788 -6.001009 -5.173502 -3.062765 -45.979039 35.186043 -9.840564 -9.481700 -7.125000 0.000000 0.000000 9.526600 15.567300 -6.715300 -1.677687 9.648350 4.632742 6.110773 -9.967616 -40.328559 -23.607831 28.509466 -9.717117 2.305096 -0.257088 3.976749 -50.770516 -12.463384 15.091200 7.125000 0.000000 0.000000 -25.155600 -47.285000 1.510400 
